<?xml version="1.0" encoding="UTF-8" standalone="no"?>
<!-- Created with Inkscape (http://www.inkscape.org/) -->

<svg
   width="120"
   height="120"
   viewBox="0 0 120 120"
   version="1.1"
   id="svg1"
   xmlns="http://www.w3.org/2000/svg"
   xmlns:svg="http://www.w3.org/2000/svg">
  <defs
     id="defs1" />
  <g
     id="layer8"
     style="display:inline"
     transform="rotate(90,60,60)">
    <path
       id="rect18"
       style="display:none;fill:none;stroke:#ffffff;stroke-width:12;stroke-linecap:round;stroke-dasharray:none"
       d="m 26.839737,43.419875 c 0,0 30.97349,33.16025 33.16025,33.16025 2.072095,0 33.160276,-33.160247 33.160276,-33.160247" />
    <path
       id="path19"
       style="display:inline;fill:none;stroke:#ffffff;stroke-width:12;stroke-linecap:round;stroke-dasharray:none"
       d="m 26.839737,76.580125 c 0,0 30.97349,-33.16025 33.16025,-33.16025 2.072095,0 33.160276,33.16025 33.160276,33.16025" />
  </g>
  <g
     id="layer7"
     transform="translate(2.530379,0.47489)"
     style="display:none">
    <circle
       style="fill:none;fill-opacity:1;stroke:#ffffff;stroke-width:12;stroke-linecap:round;stroke-dasharray:none;stroke-opacity:1"
       id="path15"
       cx="48.25"
       cy="48.25"
       r="28.25" />
    <path
       style="fill:none;fill-opacity:1;stroke:#ffffff;stroke-width:12;stroke-linecap:round;stroke-dasharray:none;stroke-opacity:1"
       d="m 66.064242,70.17522 28.875,28.875"
       id="path16" />
    <path
       style="fill:none;fill-opacity:1;stroke:#ffffff;stroke-width:10;stroke-linecap:round;stroke-dasharray:none;stroke-opacity:1"
       d="M 36.5,48.5 H 60.25"
       id="path17" />
    <path
       style="display:none;fill:none;fill-opacity:1;stroke:#ffffff;stroke-width:10;stroke-linecap:round;stroke-dasharray:none;stroke-opacity:1"
       d="m 48.375,36.625 v 23.75"
       id="path18" />
  </g>
  <g
     id="layer6"
     style="display:none"
     transform="rotate(90,59.999998,60)">
    <path
       style="display:inline;fill:#ffffff;fill-opacity:1;stroke:#ffffff;stroke-width:3.4;stroke-linecap:round;stroke-dasharray:none;stroke-opacity:1"
       id="path13"
       d="m 40.23254,32.709846 c 0.190313,1e-6 9.610781,16.316732 9.515625,16.481547 -0.09516,0.164816 -18.936094,0.164815 -19.03125,0 -0.09516,-0.164816 9.325313,-16.481547 9.515625,-16.481547 z"
       transform="matrix(0,-1.8199505,1.3825013,0,30.629845,133.22123)" />
    <path
       style="fill:#ffffff;fill-opacity:1;stroke:#ffffff;stroke-width:10;stroke-linecap:round;stroke-dasharray:none;stroke-opacity:1"
       d="M 60,21.258534 V 98.741466"
       id="path12" />
    <path
       style="display:inline;fill:#ffffff;fill-opacity:1;stroke:#ffffff;stroke-width:3.4;stroke-linecap:round;stroke-dasharray:none;stroke-opacity:1"
       id="path14"
       d="m 40.23254,32.709846 c 0.190313,1e-6 9.610781,16.316732 9.515625,16.481547 -0.09516,0.164816 -18.936094,0.164815 -19.03125,0 -0.09516,-0.164816 9.325313,-16.481547 9.515625,-16.481547 z"
       transform="matrix(0,-1.8199505,-1.3825013,0,89.370151,133.22123)" />
  </g>
  <g
     id="layer5"
     style="display:none">
    <path
       id="path5-2"
       style="display:inline;fill:none;stroke:#ffffff;stroke-width:12;stroke-linecap:round"
       d="m 60,20 c -22.09139,0 -40,17.90861 -40,40 0,22.09139 17.90861,40 40,40 22.09139,0 40,-17.90861 40,-40" />
    <path
       style="fill:#ffffff;fill-opacity:1;stroke:#ffffff;stroke-width:3.4;stroke-linecap:round;stroke-dasharray:none;stroke-opacity:1"
       id="path9"
       d="m 40.23254,32.709846 c 0.190313,1e-6 9.610781,16.316732 9.515625,16.481547 -0.09516,0.164816 -18.936094,0.164815 -19.03125,0 -0.09516,-0.164816 9.325313,-16.481547 9.515625,-16.481547 z"
       transform="matrix(0,-1.231795,-1.231795,0,122.85993,69.761187)" />
    <text
       xml:space="preserve"
       style="font-style:normal;font-variant:normal;font-weight:normal;font-stretch:normal;font-size:37.3333px;font-family:sans-serif;-inkscape-font-specification:'sans-serif, Normal';font-variant-ligatures:normal;font-variant-caps:normal;font-variant-numeric:normal;font-variant-east-asian:normal;text-align:start;writing-mode:lr-tb;direction:ltr;text-anchor:start;display:inline;fill:#ffffff;fill-opacity:1;stroke:#ffffff;stroke-width:3.4;stroke-linecap:round;stroke-dasharray:none;stroke-opacity:1"
       x="37.997414"
       y="74.118477"
       id="text10"><tspan
         id="tspan12"
         x="37.997414"
         y="74.118477">90</tspan></text>
  </g>
  <g
     id="layer4"
     style="display:none">
    <circle
       style="fill:none;fill-opacity:1;stroke:#ffffff;stroke-width:12;stroke-linecap:round;stroke-dasharray:none;stroke-opacity:1"
       id="path5-1"
       cx="60"
       cy="60"
       r="40" />
    <path
       style="fill:none;fill-opacity:1;stroke:#ffffff;stroke-width:12;stroke-linecap:round;stroke-dasharray:none;stroke-opacity:1"
       d="M 45.639531,45.639531 74.360469,74.360469"
       id="path6" />
    <path
       style="fill:none;fill-opacity:1;stroke:#ffffff;stroke-width:12;stroke-linecap:round;stroke-dasharray:none;stroke-opacity:1"
       d="M 74.360469,45.639531 45.639531,74.360469"
       id="path7" />
  </g>
  <g
     id="layer3"
     style="display:none">
    <circle
       style="fill:none;fill-opacity:1;stroke:#ffffff;stroke-width:12;stroke-linecap:round;stroke-dasharray:none;stroke-opacity:1"
       id="path5"
       cx="60"
       cy="60"
       r="40" />
  </g>
</svg>
